<?xml version="1.0" encoding="utf-8"?>
<!-- Generator: Adobe Illustrator 16.0.4, SVG Export Plug-In . SVG Version: 6.00 Build 0)  -->
<!DOCTYPE svg PUBLIC "-//W3C//DTD SVG 1.1//EN" "http://www.w3.org/Graphics/SVG/1.1/DTD/svg11.dtd">
<svg version="1.1" id="Layer_1" xmlns="http://www.w3.org/2000/svg" xmlns:xlink="http://www.w3.org/1999/xlink" x="0px" y="0px"
	 width="512px" height="512px" viewBox="0 0 512 512" enable-background="new 0 0 512 512" xml:space="preserve">
<g id="PQBuilder_Old" display="none">
	<path id="Circle_2_" display="inline" fill-rule="evenodd" clip-rule="evenodd" fill="#68B2E2" d="M425.496,86.158
		c-42.638-42.918-95.209-66.5-155.938-69.648c-71.183-3.692-133.03,19.706-183.324,69.842
		c-46.448,46.303-69.71,103.372-70.036,169.309c-0.59,134.243,107.001,233.843,225.373,239.843
		c71.349,3.616,133.303-19.599,183.926-69.705c42.874-42.438,66.548-94.833,69.883-155.333
		C499.321,198.945,475.834,136.827,425.496,86.158z"/>
	<path id="Circle_Blick_2_" display="inline" fill-rule="evenodd" clip-rule="evenodd" fill="#13244B" d="M486.361,235.011
		c2.416,71.019-21.451,131.965-73.053,180.549c-51.686,48.665-114.246,68.526-184.804,61.179
		c-50.475-5.256-94.824-25.762-131.5-60.637c-51.521-48.992-75.903-109.729-73.621-180.862
		c-4.189,99.009,34.295,176.687,121.743,223.904c82.476,44.532,166.487,39.136,243.572-14.741
		C460.499,394.22,491.229,322.274,486.361,235.011z"/>
	<g id="Paw_3_" display="inline">
		<path fill-rule="evenodd" clip-rule="evenodd" fill="#13244B" d="M459.337,259.543c-1.205-5.62-3.28-10.748-6.373-15.067
			c-3.093-4.318-7.204-7.828-12.482-10.211c-3.638-1.642-8.019-3.033-12.261-4.013c-4.243-0.98-8.348-1.55-11.431-1.55
			s-7.509,0.59-12.146,1.624c-4.637,1.033-9.486,2.51-13.417,4.283c-0.801,0.361-1.591,0.732-2.374,1.112
			c-0.782,0.379-1.557,0.767-2.327,1.159c-9.509,4.851-17.821,10.926-24.632,18.44c-6.812,7.514-12.121,16.465-15.623,27.065
			c-2.102,6.363-3.322,12.653-3.219,18.899c0.104,6.247,1.535,12.451,4.735,18.642c1.1,2.127,2.327,4.071,3.675,5.842
			c1.347,1.771,2.812,3.368,4.389,4.804c2.739,2.493,5.814,4.49,9.186,6.03s7.039,2.622,10.965,3.288
			c9.413,1.596,18.347,0.975,26.842-1.378s16.551-6.435,24.209-11.763c5.65-3.933,10.729-8.35,15.167-13.373
			s8.237-10.654,11.33-17.013c2.899-5.961,5.042-11.924,6.111-18.018C460.73,272.251,460.729,266.026,459.337,259.543z"/>
		<path fill-rule="evenodd" clip-rule="evenodd" fill="#13244B" d="M218.464,128.58c0.479-8.997,1.523-20.103,5.556-30.91
			c4.845-12.991,12.74-23.729,23.029-32.541c11.569-9.907,25.613-14.473,40.549-11.391c12.481,2.577,21.375,11.25,26.812,22.975
			c7.608,16.407,7.694,33.46,2.85,50.401c-4.094,14.312-11.417,26.794-22.812,37.104c-12.147,10.988-25.601,16.49-41.817,14.277
			c-9.226-1.259-16.545-6.473-22.146-13.635C222.742,154.96,219.04,143.422,218.464,128.58z"/>
		<path fill-rule="evenodd" clip-rule="evenodd" fill="#13244B" d="M159.574,77.936c16.076,0.27,26.79,8.217,34.575,20.57
			c7.582,12.034,10.27,25.312,9.977,39.562c-0.209,10.22-1.887,19.977-5.763,29.262c-6.42,15.385-15.719,28.733-31.492,35.659
			c-12.276,5.392-25.128,5.648-36.788-1.889c-11.531-7.455-17.79-18.901-21.674-31.854c-4.077-13.603-3.854-27.21-0.369-40.786
			c4.601-17.922,13.181-33.155,29.298-43.53C144.496,80.322,152.103,78.375,159.574,77.936z"/>
		<path fill-rule="evenodd" clip-rule="evenodd" fill="#13244B" d="M312.124,190.869c-0.335-10.333,6.325-36.274,17.527-49.581
			c10.606-12.598,23.658-21.569,39.67-25.648c15.177-3.867,29.631-2.25,41.629,8.736c5.814,5.324,9.368,12.57,10.962,20.242
			c3.547,17.073-0.641,32.763-9.129,47.776c-8.372,14.807-20.359,25.683-35.382,32.843c-13.946,6.648-28.923,8.646-43.609,2.312
			c-8.89-3.834-15.604-10.58-18.395-20.329C313.537,200.726,312.459,201.202,312.124,190.869z"/>
		<path fill-rule="evenodd" clip-rule="evenodd" fill="#13244B" d="M325.548,280.892c-0.211-0.278-0.374-0.61-0.508-0.969
			c-0.468-1.255-0.504-2.895-0.38-4.229c1.012-10.914-0.561-21.562-3.47-31.991c-4.196-15.049-12.101-27.633-24.431-37.66
			c-8.818-7.17-18.646-11.905-29.493-13.894c-21.863-4.009-42.078,1.293-60.742,12.974c-3.246,2.031-6.24,2.933-10.391,2.506
			c-6.127-0.631-13.17-1.147-18.508,1.234c-10.369,4.627-20.695,10.24-29.438,17.398c-10.875,8.902-18.505,20.747-23.534,34.242
			c-3.643,9.778-6.07,19.578-6.266,31.521c0.098,1.037,0.301,3.562,0.576,6.079c0.303,2.762,0.396,5.583,1.055,8.261
			c5.041,20.512,19.055,36.749,41.701,38.771c4.99,0.445,7.519,2.219,10.91,6.205c10.406,12.23,23.41,21.542,39.959,23.446
			c7.195,0.826,11.52,4.228,15.344,9.773c6.537,9.481,16.244,14.486,27.22,16.265c20.321,3.293,37.692-4.652,52.328-17.549
			c13.323-11.738,22.579-26.755,27.011-44.368c1.265-5.029,2.179-9.997,2.648-14.894
			C338.597,308.821,335.741,294.325,325.548,280.892z"/>
	</g>
</g>
<g id="PQBuilder" display="none">
	<path id="Big_Gear" display="inline" fill-rule="evenodd" clip-rule="evenodd" fill="#13244B" d="M494.603,244.051
		c-0.738-12.881-7.363-19.373-20.299-21.081c-8.915-1.178-17.826-2.388-26.732-3.64c-10.334-1.451-17.297-7.287-21.271-16.77
		c-4.117-9.822-8.104-19.7-12.125-29.563c-3.749-9.196-2.941-17.921,2.979-25.981c6.015-8.188,12.231-16.23,18.205-24.449
		c6.064-8.343,5.322-18.018-1.892-25.454c-5.917-6.098-11.935-12.102-17.989-18.063c-7.979-7.856-17.57-8.602-26.617-2.004
		c-8.21,5.986-16.225,12.24-24.474,18.171c-7.431,5.341-15.648,6.401-24.167,3.047c-10.683-4.208-21.311-8.568-31.851-13.122
		c-8.518-3.681-13.957-10.089-15.374-19.452c-1.546-10.207-2.784-20.462-4.44-30.649c-1.676-10.306-8.415-16.801-18.796-17.537
		c-8.287-0.588-16.662-0.674-24.957-0.22c-13.615,0.746-20.115,7.194-21.896,20.612c-1.183,8.915-2.378,17.83-3.663,26.731
		c-1.461,10.115-7.177,17.009-16.473,20.932c-9.967,4.206-19.998,8.256-30.017,12.337c-9.235,3.763-17.934,2.712-25.96-3.196
		c-7.914-5.826-15.705-11.821-23.632-17.629c-9.016-6.606-18.745-5.874-26.623,1.917c-5.805,5.74-11.569,11.523-17.309,17.33
		c-8.128,8.223-8.887,17.719-2.083,26.989c5.913,8.057,11.996,15.989,17.904,24.05c5.315,7.253,6.559,15.394,3.457,23.693
		c-4.192,11.218-8.814,22.293-13.701,33.229c-3.604,8.064-9.935,13.314-18.883,14.699c-10.202,1.579-20.462,2.788-30.659,4.392
		c-10.517,1.654-17.164,8.51-17.792,19.105c-0.53,8.955-0.534,17.991-0.021,26.946c0.622,10.869,7.316,17.684,18.111,19.326
		c10.041,1.529,20.127,2.762,30.16,4.34c9.319,1.465,15.734,6.934,19.41,15.459c4.547,10.545,8.965,21.15,13.138,31.848
		c3.243,8.311,2.224,16.373-2.847,23.766c-2.447,3.568-5.144,6.967-7.732,10.439c-4.081,5.477-8.31,10.85-12.214,16.449
		c-4.922,7.061-5.677,14.809-1.532,19.473c6.298,7.09,12.685,14.166,19.649,20.58c9.233,8.504,23.201,8.684,33.292,1.172
		c6.947-5.172,13.775-10.512,20.831-15.531c7.471-5.316,15.706-6.195,24.198-2.842c10.525,4.154,20.994,8.463,31.396,12.92
		c8.717,3.734,14.256,10.24,15.695,19.787c1.49,9.879,2.714,19.799,4.217,29.678c1.655,10.883,8.316,17.609,19.171,18.303
		c9.113,0.582,18.324,0.551,27.439-0.037c10.347-0.668,17.125-7.381,18.709-17.594c1.479-9.543,2.745-19.121,4.009-28.695
		c1.391-10.537,7.07-17.744,16.779-21.807c9.98-4.178,19.966-8.346,30.039-12.291c3.189-1.248,7.967-3.498,11.476-2.984
		s9.54,3.207,13.944,6.113c8.327,5.496,16.048,11.902,24.112,17.807c8.836,6.467,18.525,5.807,26.244-1.752
		c6.071-5.945,12.079-11.957,18.018-18.035c7.581-7.758,8.283-17.5,1.87-26.25c-6.005-8.197-12.219-16.24-18.204-24.449
		c-5.547-7.607-6.355-15.99-2.996-24.635c3.978-10.238,8.237-20.367,12.477-30.5c4.144-9.902,11.527-15.564,22.272-16.902
		c9.419-1.17,18.826-2.465,28.209-3.893c10.168-1.547,16.915-8.371,17.63-18.688C495.021,261.379,495.097,252.671,494.603,244.051z"
		/>
	<path id="Small_Gear" display="inline" fill-rule="evenodd" clip-rule="evenodd" fill="#68B2E2" d="M483.937,240.396
		c-0.434-8.023-7.492-14.688-15.536-15.84c-7.574-1.086-15.135-2.541-22.751-2.996c-14.455-0.867-23.814-7.77-28.559-21.496
		c-2.647-7.66-5.89-15.133-9.185-22.547c-4.48-10.086-3.517-19.289,3.327-28.021c5.644-7.199,11.116-14.539,16.479-21.951
		c5.639-7.793,4.922-17.223-1.748-24.117c-5.561-5.746-11.246-11.373-16.93-17c-7.874-7.797-17.146-8.506-26.031-1.945
		c-7.626,5.633-15.103,11.473-22.774,17.041c-7.083,5.143-14.95,6.445-23.146,3.219c-10.632-4.189-21.187-8.594-31.651-13.184
		c-8.015-3.518-12.949-9.775-14.297-18.498c-1.498-9.697-2.755-19.434-4.083-29.158c-1.208-8.848-7.136-15.684-16.132-16.336
		c-10.225-0.74-20.581-0.566-30.822,0.107c-7.487,0.494-13.913,7.709-15.014,15.256c-1.104,7.572-2.535,15.133-3.016,22.75
		c-0.906,14.369-7.545,23.891-21.36,28.654c-8.288,2.857-16.252,6.652-24.393,9.949c-8.874,3.594-17.261,2.637-24.979-3.08
		c-7.753-5.742-15.366-11.674-23.166-17.35c-7.92-5.764-17.448-4.988-24.49,1.881c-5.605,5.467-11.111,11.039-16.612,16.611
		c-8.041,8.145-8.701,17.234-1.881,26.428c5.551,7.48,11.277,14.832,16.773,22.352c5.166,7.07,6.549,14.949,3.361,23.141
		c-4.204,10.805-8.622,21.539-13.388,32.107c-3.665,8.127-10.229,12.918-19.193,14.156c-9.724,1.344-19.454,2.637-29.169,4.037
		c-8.134,1.172-14.95,7.529-15.473,15.877c-0.631,10.078-0.601,20.254,0.014,30.334c0.486,7.973,7.396,14.518,15.134,15.67
		c7.569,1.127,15.144,2.273,22.752,3.066c9.737,1.014,19.54,2.773,24.233,12.316c6.051,12.301,11.151,25.121,15.844,38.016
		c2.585,7.102,0.276,14.141-4.226,20.217c-6.041,8.152-12.273,16.168-18.213,24.395c-4.989,6.91-5.93,14.402-1.954,18.906
		c6.163,6.982,12.445,13.949,19.37,20.146c8.706,7.793,21.451,7.857,30.709,1.012c6.821-5.043,13.49-10.297,20.377-15.248
		c6.972-5.014,14.735-6.125,22.722-3.004c10.801,4.221,21.554,8.6,32.118,13.373c7.938,3.586,12.717,10.031,13.989,18.777
		c1.413,9.713,2.68,19.449,4.047,29.168c1.195,8.492,7.447,14.861,16.019,16.012c4.934,0.662,9.968,1.15,15.093,1.119
		s10.15-0.5,15.248-1.186c7.905-1.061,14.379-7.545,15.541-15.377c1.123-7.57,2.568-15.135,3.028-22.754
		c0.868-14.381,7.456-23.924,21.299-28.674c8.136-2.793,15.986-6.428,23.922-9.783c9.241-3.906,17.836-2.895,25.849,3.117
		c7.584,5.691,15.095,11.482,22.754,17.072c7.878,5.748,17.506,5.029,24.509-1.777c5.733-5.574,11.347-11.275,16.956-16.975
		c7.612-7.738,8.32-16.957,1.911-25.652c-5.725-7.766-11.669-15.373-17.331-23.186c-5.155-7.115-6.222-15.004-2.994-23.17
		c4.138-10.471,8.446-20.881,12.98-31.186c3.676-8.355,10.18-13.361,19.346-14.643c9.721-1.357,19.45-2.65,29.165-4.043
		c8.333-1.195,15.193-7.768,15.662-16.258C484.519,260.322,484.474,250.322,483.937,240.396z"/>
	<g id="Paw" display="inline">
		<path fill-rule="evenodd" clip-rule="evenodd" fill="#13244B" d="M305.994,276.775c0.429-10.008-1.276-19.817-5.038-29.018
			c-10.561-25.83-29.323-37.873-54.498-39.018c-13.538-0.615-26.148,4.262-38.05,10.807c-3.012,1.656-6.689,2.229-10.135,2.941
			c-6.882,1.426-14.097,1.775-20.677,4.025c-26.151,8.943-45.965,40.409-45.074,66.698c0.486,4.254,0.439,8.652,1.553,12.734
			c4.538,16.646,13.841,29.006,32.015,31.664c6.545,0.959,10.922,3.936,15.113,8.711c8.551,9.744,19.38,15.691,32.405,17.396
			c3.655,0.479,6.86,1.883,9.062,5.215c11.514,17.432,33.861,20.662,52.02,11.959c18.003-8.631,30.108-22.652,37.025-40.906
			c6.499-17.146,7.302-34.605-2.499-51.098C306.893,284.977,305.804,281.242,305.994,276.775z"/>
		<path fill-rule="evenodd" clip-rule="evenodd" fill="#13244B" d="M185.167,213.263c18.808-17.318,26.611-48.426,15.611-73.354
			c-10.885-24.668-35.396-31.246-55.269-15.018c-15.605,12.742-21.039,30.307-22.701,49.029c0.782,11.35,2.724,21.744,8.262,31.32
			C143.011,225.884,167.623,229.417,185.167,213.263z"/>
		<path fill-rule="evenodd" clip-rule="evenodd" fill="#13244B" d="M269.675,196.117c25.894-13.299,40.54-50.068,30.152-77.242
			c-5.312-13.896-16.427-24.096-31.598-23.705c-6.729,0.268-13.181,2.18-18.717,5.355c-25.018,14.342-37.622,47.453-28.434,74.82
			C228.153,196.417,248.308,207.091,269.675,196.117z"/>
		<path fill-rule="evenodd" clip-rule="evenodd" fill="#13244B" d="M340.34,242.908c11.897-3.02,21.923-9.236,30.225-18.08
			c12.658-13.486,20.249-29.002,18.588-48.166c-1.554-17.93-15.066-30.338-33.532-30.352c-9.12,0.439-15.9,2.312-22.729,5.887
			c-20.1,10.521-32.491,27.152-36.29,49.82C292.146,228.601,313.022,249.839,340.34,242.908z"/>
		<path fill-rule="evenodd" clip-rule="evenodd" fill="#13244B" d="M362.021,336.236c17.324-1.713,32.005-9.926,43.582-23.236
			c8.609-9.9,14.8-21.229,15.246-34.334c0.022-0.654,0.03-1.299,0.025-1.938c-0.189-20.217-13.751-33.051-34.638-34
			c-14.13-0.641-26.704,4.885-37.667,13.375c-14.979,11.6-25.07,26.27-25.638,40.014
			C322.689,328.277,344.864,337.934,362.021,336.236z"/>
	</g>
</g>
<g id="PQExtensions" display="none">
	<g id="Pazzle" display="inline">
		<path fill-rule="evenodd" clip-rule="evenodd" fill="#F1972B" d="M242.073,352.396c0.683-8.829,1.376-17.823,2.075-26.818
			c0.408-5.249,0.984-10.491,1.201-15.747c0.43-10.384,7.062-16.618,15.475-20.05c4.943-2.017,11.326-0.831,17.037-0.563
			c8.048,0.378,16.073,1.233,24.107,1.897c3.583,0.296,7.161,0.621,11.142,0.968c0.433-4.521,1.348-8.92,1.181-13.277
			c-0.584-15.291,9.76-25.455,21.766-28.913c17.457-5.027,36.173,10.152,35.318,25.931c-0.355,6.561-0.696,13.122-1.049,19.773
			c4.943,0.532,9.476,1.174,14.031,1.482c11.193,0.761,22.397,1.37,33.597,2.035c5.864,0.349,18.169,11.194,17.467,19.97
			c-1.195,14.938-2.049,29.904-3.034,44.858c-0.054,0.815-0.007,1.638-0.007,2.2c11.699,1.435,23.912,0.04,33.27,8.829
			c8.586,8.063,11.226,18.14,8.679,29.579c-2.319,10.417-15.142,20.526-25.973,20.543c-6.417,0.01-12.835,0.002-19.541,0.002
			c-0.414,3.527-1.095,7.884-1.405,12.266c-0.771,10.859-1.238,21.74-2.086,32.593c-0.661,8.452-6.477,13.275-13.215,17.06
			c-6.44,3.616-13.602,2.083-20.444,1.915c-8.047-0.198-16.064-1.57-24.11-1.744c-9.769-0.21-10.08,0.354-8.643-11.125
			c1.761-14.072-0.659-26.257-13.597-34.499c-14.589-9.294-37.174-2.633-41.785,14.03c-1.851,6.688-2.423,13.782-3.037,20.739
			c-0.345,3.901-1.012,6.265-5.662,5.803c-14.706-1.465-29.46-2.483-44.137-4.193c-6.718-0.782-15.447-12.072-15.23-19.288
			c0.428-14.208,1.233-28.405,1.988-42.601c0.083-1.562,0.854-3.087,1.377-4.866c6.824,0.32,13.592,0.315,20.282,1.035
			c7.913,0.852,13.561-3.433,19.108-7.77c6.151-4.809,7.478-12.282,9.018-19.321c2.407-11.008-9.395-27.214-20.785-29.021
			C258.713,354.879,250.961,353.745,242.073,352.396z"/>
		<path fill-rule="evenodd" clip-rule="evenodd" fill="#E84A4F" d="M285.999,126.671c-1.582-5.843-3.478-11.424-4.568-17.158
			c-2.652-13.936,1.995-23.666,13.013-30.725c15.828-10.14,38.746-1.166,42.096,17.438c0.908,5.05,2.881,9.909,4.408,14.995
			c14.056-3.772,27.862-7.471,41.664-11.185c14.779-3.978,26.125,3.073,29.821,18.015c3.189,12.901,6.939,25.664,10.463,38.568
			c6.716-1.357,13.019-2.64,19.326-3.901c14.373-2.876,29.992,8.145,32.275,23.742c2.319,15.844-8.383,30.115-23.307,32.815
			c-4.103,0.742-8.038,2.4-12.627,3.814c2.922,10.393,6.142,20.705,8.648,31.189c1.525,6.373,4.324,12.367,3.476,19.493
			c-1.202,10.091-8.926,17.804-17.963,20.32c-13.144,3.661-26.301,7.273-39.369,10.883c-2.593-7.478-4.804-15.049-7.81-22.29
			c-7.904-19.041-35.225-21.244-47.906-5.808c-8.046,9.795-7.447,19.716-5.118,30.487c0.955,4.415,2.534,8.695,4.015,13.658
			c-15.62,3.973-30.979,8.381-46.579,11.637c-7.825,1.633-18.708-4.468-21.406-12.021c-4.245-11.884-7.511-24.117-11.137-36.22
			c-1.008-3.36-1.824-6.779-2.766-10.311c6.633-2.006,12.951-3.982,19.309-5.825c12.585-3.647,19.45-14.949,19.255-26.83
			c-0.257-15.617-10.899-26.137-24.712-28.779c-7.35-1.408-13.998,1.295-20.859,2.832c-2.655,0.595-5.23,1.55-8.475,2.533
			c-2.281-7.901-4.562-15.627-6.734-23.384c-1.447-5.167-2.622-10.409-4.118-15.56c-3.558-12.246,0.228-22.964,10.276-29.027
			c4.407-2.659,10.082-3.253,15.213-4.667C264.46,132.468,275.139,129.611,285.999,126.671z"/>
		<path fill-rule="evenodd" clip-rule="evenodd" fill="#C0C442" d="M273.41,159.377c2.077,7.173,4.22,14.146,6.103,21.187
			c2.114,7.906,4.474,15.793,5.865,23.836c2.224,12.861-5.69,21.848-15.431,24.809c-13.217,4.018-26.471,7.918-39.719,11.834
			c-0.611,0.18-1.322,0.023-2.385,0.023c-1.784-5.629-3.803-11.267-5.349-17.03c-2.968-11.064-12.335-18.791-23.538-19.991
			c-15.377-1.648-27.012,6.588-31.545,20.096c-2.537,7.56-0.893,14.964,1.145,22.298c1.039,3.741,2.318,7.417,3.648,11.63
			c-10.3,3.022-20.572,6.027-30.838,9.053c-3.276,0.967-6.545,1.964-9.801,2.994c-11.537,3.651-26.455-2.797-30.111-17.608
			c-3.309-13.403-7.484-26.595-11.193-39.589c-7.818,1.753-15.436,4.176-23.227,5.049c-13.436,1.504-26.306-9.064-28.789-22.684
			c-2.334-12.797,3.463-27.241,17.757-32.121c5.962-2.034,12.063-3.658,17.864-5.396c-4.234-14.788-8.111-29.589-12.768-44.14
			c-3.138-9.802,5.059-23.367,14.24-25.997c14.535-4.164,28.986-8.619,43.182-12.864c-3.678-12.058-8.652-24.276-1.975-36.941
			c7.558-14.331,26.079-20.048,40.793-10.529c9.57,6.192,12.053,15.688,15.021,25.317c0.19,0.619,0.053,1.34,0.245,1.959
			c0.336,1.076,0.811,2.111,1.508,3.871c3.582-1.048,7.248-2.135,10.922-3.193c11.093-3.198,22.204-6.334,33.278-9.596
			c7.521-2.216,21.101,2.939,24.097,12.028c4.593,13.933,9.098,27.894,13.718,41.816c0.949,2.86-0.603,3.833-2.839,4.604
			c-6.722,2.317-13.847,3.886-20.059,7.173c-13.547,7.166-18.729,25.629-10.392,39.172c9.511,15.451,22.489,16.935,36.079,12.857
			C263.434,161.948,268.02,160.829,273.41,159.377z"/>
		<path fill-rule="evenodd" clip-rule="evenodd" fill="#3F5CAA" d="M86.73,286.057c-6.682-7.153-13.556-12.42-17.566-19.345
			c-4.847-8.369-4.648-17.943,0.088-27.155c8.149-15.851,28.273-20.665,42.48-10.171c5.156,3.809,9.16,9.18,13.887,14.039
			c9.082-9.465,18.141-18.211,26.365-27.681c7.668-8.829,16.547-14.586,28.009-10.252c6.21,2.348,11.411,7.801,16.557,12.421
			c8.009,7.193,15.583,14.869,24.255,23.219c4.067-4.388,7.902-8.592,11.811-12.726c9.537-10.089,23.514-10.39,34.357-3.892
			c13.791,8.264,17.757,24.469,10.986,37.787c-3.527,6.94-9.938,12.416-15.215,18.758c10.089,9.733,20.303,19.951,30.926,29.726
			c8.687,7.993,9.415,23.645,1.004,32.561c-8.847,9.378-17.564,18.877-26.354,28.309c-2.848,3.056-4.74,2.563-8.19-1.067
			c-5.601-5.894-11.155-11.922-19.319-14.488c-9.26-2.912-17.665-1.69-25.774,3.896c-7.547,5.2-11.424,12.489-12.482,21.048
			c-1.217,9.828,3.378,17.896,10.09,24.764c3.78,3.868,7.75,7.549,11.642,11.322c-11.399,11.595-22.27,23.231-33.817,34.149
			c-5.666,5.357-17.961,5.535-24.333,0.953c-3.777-2.716-7.426-5.661-10.843-8.816c-7.359-6.8-14.57-13.762-21.748-20.753
			c-1.354-1.318-2.273-3.081-2.832-3.858c5.93-9.705,17.066-14.515,18.984-26.389c1.307-8.091,0.467-15.299-4.589-22.406
			c-9.258-13.018-22.007-15.321-34.081-10.715c-4.287,1.637-7.933,5.228-11.525,8.325c-3.258,2.809-5.925,6.292-9.119,9.184
			c-0.855,0.773-3.357,1.152-3.973,0.553c-11.258-10.978-23.018-21.555-33.213-33.466c-6.035-7.053-4.447-16.914-0.093-24.416
			c3.655-6.298,9.999-11.088,15.366-16.324C74.6,297.166,80.969,291.429,86.73,286.057z"/>
	</g>
	<g id="Paw_Mask" display="inline" opacity="0.5">
		<defs>
			<path id="SVGID_1_" opacity="0.5" d="M464.65,374.972c-9.357-8.789-21.57-7.395-33.27-8.83c0-0.562-0.047-1.385,0.006-2.199
				c0.986-14.955,1.84-29.92,3.035-44.859c0.701-8.775-11.604-19.621-17.467-19.969c-11.199-0.666-22.404-1.275-33.598-2.035
				c-4.555-0.309-9.088-0.951-14.031-1.482c0.354-6.652,0.693-13.213,1.049-19.773c0.382-7.045-3.144-13.965-8.71-19.025
				c9.671,0.802,18.829,6.126,22.882,15.889c3.006,7.242,5.217,14.812,7.809,22.291c13.068-3.609,26.227-7.223,39.369-10.883
				c9.037-2.518,16.762-10.23,17.963-20.32c0.85-7.127-1.949-13.121-3.475-19.494c-2.508-10.484-5.727-20.797-8.648-31.189
				c4.588-1.414,8.523-3.072,12.627-3.814c14.924-2.7,25.625-16.972,23.307-32.815c-2.283-15.598-17.902-26.618-32.275-23.742
				c-6.309,1.262-12.611,2.544-19.326,3.901c-3.523-12.904-7.273-25.667-10.463-38.568c-3.697-14.941-15.043-21.992-29.822-18.015
				c-13.801,3.714-27.607,7.412-41.664,11.185c-1.527-5.086-3.5-9.945-4.408-14.995c-3.35-18.604-26.268-27.578-42.096-17.438
				c-11.018,7.059-15.664,16.789-13.012,30.725c1.09,5.734,2.986,11.315,4.568,17.158c-10.861,2.94-21.539,5.797-32.196,8.731
				c-5.132,1.414-10.806,2.008-15.213,4.667c-6.377,3.848-10.222,9.574-11.277,16.372c-1.562-1.71-3.058-3.694-4.474-5.997
				c-8.337-13.543-3.156-32.006,10.391-39.172c6.213-3.287,13.338-4.855,20.059-7.173c2.237-0.771,3.789-1.743,2.84-4.604
				c-4.62-13.923-9.125-27.884-13.718-41.816c-2.996-9.089-16.575-14.244-24.097-12.028c-11.074,3.262-22.186,6.397-33.279,9.596
				c-3.674,1.059-7.34,2.146-10.921,3.193c-0.697-1.76-1.172-2.795-1.508-3.871c-0.192-0.619-0.055-1.34-0.245-1.959
				c-2.969-9.629-5.451-19.125-15.021-25.317c-14.713-9.519-33.234-3.802-40.792,10.529c-6.679,12.665-1.704,24.884,1.975,36.941
				c-14.196,4.245-28.647,8.7-43.183,12.864c-9.181,2.63-17.377,16.195-14.24,25.997c4.657,14.551,8.533,29.352,12.768,44.14
				c-5.8,1.738-11.902,3.362-17.863,5.396c-14.295,4.88-20.092,19.324-17.758,32.121c2.484,13.619,15.354,24.188,28.79,22.684
				c7.791-0.873,15.408-3.296,23.226-5.049c1.036,3.629,2.109,7.273,3.188,10.934c-9.812,0.493-19.229,6.045-24.197,15.705
				c-4.736,9.213-4.934,18.787-0.087,27.156c4.011,6.926,10.884,12.191,17.565,19.346c-5.761,5.371-12.13,11.109-18.262,17.092
				c-5.367,5.236-11.71,10.027-15.365,16.324c-4.355,7.502-5.943,17.363,0.093,24.416c10.194,11.912,21.954,22.488,33.213,33.467
				c0.614,0.6,3.117,0.221,3.972-0.553c3.195-2.893,5.862-6.375,9.119-9.184c3.594-3.098,7.238-6.689,11.525-8.326
				c12.074-4.605,24.824-2.303,34.082,10.715c5.055,7.107,5.895,14.316,4.588,22.406c-1.917,11.875-13.055,16.684-18.984,26.389
				c0.559,0.777,1.479,2.541,2.832,3.859c7.179,6.99,14.389,13.953,21.749,20.752c3.417,3.156,7.065,6.102,10.843,8.816
				c6.371,4.582,18.666,4.404,24.332-0.953c11.549-10.918,22.418-22.555,33.818-34.148c-3.893-3.773-7.861-7.455-11.642-11.322
				c-6.712-6.867-11.308-14.936-10.091-24.764c1.06-8.559,4.936-15.848,12.482-21.049c8.11-5.586,16.516-6.809,25.775-3.896
				c8.164,2.566,13.719,8.596,19.318,14.488c3.451,3.631,5.344,4.123,8.191,1.068c3.018-3.238,6.025-6.487,9.034-9.734
				c6.736,6.149,11.493,15.84,9.882,23.207c-1.539,7.039-2.865,14.514-9.018,19.322c-5.547,4.336-11.195,8.621-19.107,7.77
				c-6.69-0.721-13.458-0.715-20.283-1.035c-0.521,1.779-1.293,3.303-1.377,4.865c-0.754,14.195-1.561,28.393-1.987,42.602
				c-0.217,7.215,8.513,18.506,15.23,19.287c14.677,1.711,29.431,2.729,44.136,4.193c4.65,0.463,5.318-1.9,5.662-5.803
				c0.615-6.957,1.188-14.051,3.037-20.738c4.611-16.664,27.197-23.324,41.785-14.031c12.938,8.242,15.357,20.428,13.598,34.5
				c-1.438,11.479-1.127,10.914,8.643,11.125c8.045,0.174,16.062,1.545,24.109,1.744c6.844,0.168,14.004,1.701,20.445-1.916
				c6.738-3.783,12.553-8.607,13.215-17.059c0.848-10.854,1.314-21.734,2.086-32.594c0.311-4.381,0.99-8.738,1.404-12.266
				c6.707,0,13.125,0.008,19.541-0.002c10.832-0.016,23.654-10.125,25.973-20.543C475.875,393.11,473.236,383.034,464.65,374.972z
				 M292.213,231.454c0.158,9.645-4.337,18.906-12.767,24.004c2.234-9.702-0.629-19.92-8.284-27.046
				c6.763-2.786,12.247-8.599,13.375-16.641C289.19,216.729,292.08,223.414,292.213,231.454z M195.551,217.913
				c-4.469-4.012-8.98-8.648-14.156-11.338c4.766-2.25,10.359-3.196,16.562-2.531c11.203,1.2,20.57,8.927,23.539,19.991
				c1.035,3.86,2.283,7.662,3.53,11.444c-1.714,1.857-3.443,3.734-5.222,5.652C211.134,232.782,203.559,225.106,195.551,217.913z"/>
		</defs>
		<clipPath id="SVGID_2_">
			<use xlink:href="#SVGID_1_"  overflow="visible"/>
		</clipPath>
		<g id="PQStudio_1_" clip-path="url(#SVGID_2_)">
			<path id="Circle_1_" fill-rule="evenodd" clip-rule="evenodd" fill="#CADD5F" d="M426.916,90.174
				c-42.638-42.919-95.209-66.499-155.938-69.648c-71.183-3.692-133.03,19.706-183.324,69.842
				C41.207,136.67,17.943,193.739,17.618,259.676c-0.59,134.243,107.001,233.843,225.373,239.843
				c71.349,3.616,133.303-19.599,183.926-69.705c42.874-42.438,66.548-94.833,69.883-155.333
				C500.741,202.961,477.254,140.843,426.916,90.174z"/>
			<path id="Circle_Blick_1_" fill-rule="evenodd" clip-rule="evenodd" fill="#396531" d="M487.781,239.026
				c2.416,71.019-21.451,131.965-73.053,180.549c-51.686,48.665-114.246,68.526-184.804,61.179
				c-50.475-5.256-94.824-25.762-131.5-60.637c-51.521-48.992-75.903-109.729-73.622-180.862
				C20.613,338.264,59.1,415.941,146.547,463.159c82.476,44.532,166.487,39.136,243.572-14.741
				C461.919,398.235,492.648,326.29,487.781,239.026z"/>
			<g id="Paw_2_">
				<path fill-rule="evenodd" clip-rule="evenodd" fill="#335125" d="M460.757,263.559c-1.205-5.62-3.28-10.748-6.373-15.067
					c-3.093-4.318-7.204-7.827-12.482-10.211c-3.638-1.643-8.019-3.033-12.261-4.013c-4.243-0.98-8.348-1.55-11.431-1.55
					s-7.509,0.59-12.146,1.623s-9.486,2.51-13.417,4.283c-0.801,0.361-1.591,0.732-2.374,1.111c-0.782,0.38-1.557,0.768-2.327,1.16
					c-9.509,4.85-17.821,10.926-24.632,18.439c-6.812,7.514-12.121,16.465-15.623,27.065c-2.102,6.363-3.322,12.653-3.219,18.899
					c0.104,6.247,1.535,12.451,4.735,18.642c1.1,2.127,2.327,4.071,3.675,5.842c1.347,1.771,2.812,3.368,4.389,4.804
					c2.739,2.493,5.814,4.49,9.186,6.03s7.039,2.622,10.965,3.288c9.413,1.596,18.347,0.975,26.842-1.378
					s16.551-6.435,24.209-11.763c5.65-3.933,10.729-8.35,15.167-13.373s8.237-10.654,11.33-17.013
					c2.899-5.961,5.042-11.924,6.111-18.018C462.15,276.267,462.148,270.042,460.757,263.559z"/>
				<path fill-rule="evenodd" clip-rule="evenodd" fill="#335125" d="M219.884,132.596c0.479-8.997,1.523-20.103,5.556-30.91
					c4.845-12.991,12.74-23.729,23.029-32.541c11.569-9.907,25.613-14.473,40.549-11.392c12.481,2.578,21.375,11.251,26.812,22.975
					c7.608,16.408,7.694,33.461,2.85,50.401c-4.094,14.312-11.417,26.794-22.812,37.104c-12.147,10.988-25.601,16.49-41.817,14.277
					c-9.226-1.259-16.545-6.473-22.146-13.635C224.162,158.976,220.46,147.438,219.884,132.596z"/>
				<path fill-rule="evenodd" clip-rule="evenodd" fill="#335125" d="M160.994,81.952c16.076,0.27,26.79,8.217,34.575,20.569
					c7.582,12.034,10.27,25.312,9.977,39.562c-0.209,10.22-1.887,19.977-5.763,29.262c-6.42,15.385-15.719,28.733-31.492,35.659
					c-12.276,5.392-25.128,5.648-36.788-1.889c-11.531-7.455-17.79-18.901-21.674-31.854c-4.077-13.603-3.854-27.21-0.369-40.786
					c4.601-17.922,13.181-33.155,29.298-43.529C145.916,84.337,153.522,82.392,160.994,81.952z"/>
				<path fill-rule="evenodd" clip-rule="evenodd" fill="#335125" d="M313.544,194.885c-0.335-10.333,6.325-36.274,17.527-49.581
					c10.606-12.598,23.658-21.569,39.67-25.648c15.177-3.867,29.631-2.25,41.629,8.736c5.814,5.324,9.368,12.57,10.962,20.242
					c3.547,17.073-0.641,32.763-9.129,47.776c-8.372,14.807-20.359,25.683-35.382,32.843c-13.946,6.648-28.923,8.646-43.609,2.312
					c-8.89-3.834-15.604-10.58-18.395-20.329C314.957,204.741,313.879,205.218,313.544,194.885z"/>
				<path fill-rule="evenodd" clip-rule="evenodd" fill="#335125" d="M326.968,284.907c-0.211-0.278-0.374-0.61-0.508-0.969
					c-0.468-1.255-0.504-2.895-0.38-4.229c1.012-10.914-0.561-21.562-3.47-31.991c-4.196-15.049-12.101-27.633-24.431-37.66
					c-8.818-7.17-18.646-11.905-29.493-13.894c-21.863-4.009-42.078,1.293-60.742,12.974c-3.246,2.031-6.24,2.933-10.391,2.506
					c-6.127-0.631-13.17-1.147-18.508,1.234c-10.369,4.627-20.695,10.24-29.438,17.398c-10.875,8.902-18.505,20.747-23.534,34.242
					c-3.644,9.778-6.069,19.578-6.265,31.521c0.096,1.037,0.301,3.562,0.576,6.079c0.301,2.762,0.395,5.583,1.055,8.261
					c5.04,20.512,19.054,36.749,41.7,38.771c4.99,0.445,7.519,2.219,10.91,6.205c10.406,12.23,23.41,21.542,39.959,23.446
					c7.195,0.826,11.52,4.228,15.344,9.773c6.537,9.481,16.244,14.486,27.22,16.265c20.321,3.293,37.692-4.652,52.328-17.549
					c13.323-11.738,22.579-26.755,27.011-44.368c1.265-5.029,2.179-9.997,2.648-14.894
					C340.017,312.837,337.161,298.341,326.968,284.907z"/>
			</g>
		</g>
	</g>
</g>
<g id="PQStudio">
	<path id="Circle" fill-rule="evenodd" clip-rule="evenodd" fill="#F16428" d="M425.496,86.158
		c-42.638-42.918-95.209-66.5-155.938-69.648c-71.183-3.692-133.03,19.706-183.324,69.842
		c-46.448,46.303-69.71,103.372-70.036,169.309c-0.59,134.243,107.001,233.843,225.373,239.843
		c71.349,3.616,133.303-19.599,183.926-69.705c42.874-42.438,66.548-94.833,69.883-155.333
		C499.321,198.945,475.834,136.827,425.496,86.158z"/>
	<path id="Circle_Blick" fill-rule="evenodd" clip-rule="evenodd" fill="#700F11" d="M486.361,235.011
		c2.416,71.019-21.451,131.965-73.053,180.549c-51.686,48.665-114.246,68.526-184.804,61.179
		c-50.475-5.256-94.824-25.762-131.5-60.637c-51.521-48.992-75.903-109.729-73.621-180.862
		c-4.189,99.009,34.295,176.687,121.743,223.904c82.476,44.532,166.487,39.136,243.572-14.741
		C460.499,394.22,491.229,322.274,486.361,235.011z"/>
	<g id="Paw_1_">
		<path fill-rule="evenodd" clip-rule="evenodd" fill="#331111" d="M459.337,259.543c-1.205-5.62-3.28-10.748-6.373-15.066
			s-7.204-7.828-12.482-10.212c-3.638-1.642-8.019-3.032-12.261-4.013c-4.243-0.98-8.348-1.55-11.431-1.55s-7.509,0.59-12.146,1.624
			c-4.637,1.033-9.486,2.51-13.417,4.282c-0.801,0.36-1.591,0.732-2.374,1.112c-0.782,0.379-1.557,0.766-2.327,1.158
			c-9.509,4.852-17.821,10.927-24.632,18.44c-6.812,7.514-12.121,16.465-15.623,27.065c-2.102,6.363-3.322,12.653-3.219,18.899
			c0.104,6.247,1.535,12.451,4.735,18.642c1.1,2.127,2.327,4.071,3.675,5.842c1.347,1.771,2.812,3.368,4.389,4.804
			c2.739,2.493,5.814,4.49,9.186,6.03s7.039,2.622,10.965,3.288c9.413,1.596,18.347,0.975,26.842-1.378s16.551-6.435,24.209-11.763
			c5.65-3.933,10.729-8.35,15.167-13.373s8.237-10.654,11.33-17.013c2.899-5.961,5.042-11.924,6.111-18.018
			C460.73,272.251,460.729,266.026,459.337,259.543z"/>
		<path fill-rule="evenodd" clip-rule="evenodd" fill="#331111" d="M218.464,128.58c0.479-8.997,1.523-20.103,5.556-30.91
			c4.845-12.99,12.74-23.729,23.029-32.541c11.569-9.906,25.613-14.473,40.549-11.391c12.481,2.576,21.375,11.25,26.812,22.975
			c7.608,16.406,7.694,33.46,2.85,50.4c-4.094,14.312-11.417,26.794-22.812,37.104c-12.147,10.988-25.601,16.49-41.817,14.277
			c-9.226-1.259-16.545-6.473-22.146-13.635C222.742,154.96,219.04,143.422,218.464,128.58z"/>
		<path fill-rule="evenodd" clip-rule="evenodd" fill="#331111" d="M159.574,77.936c16.076,0.27,26.79,8.217,34.575,20.57
			c7.582,12.034,10.27,25.312,9.977,39.562c-0.209,10.22-1.887,19.977-5.763,29.262c-6.42,15.385-15.719,28.733-31.492,35.659
			c-12.276,5.392-25.128,5.648-36.788-1.889c-11.531-7.455-17.79-18.901-21.674-31.854c-4.077-13.603-3.854-27.21-0.369-40.786
			c4.601-17.922,13.181-33.155,29.298-43.53C144.496,80.322,152.103,78.375,159.574,77.936z"/>
		<path fill-rule="evenodd" clip-rule="evenodd" fill="#331111" d="M312.124,190.869c-0.335-10.333,6.325-36.274,17.527-49.581
			c10.606-12.598,23.658-21.569,39.67-25.648c15.177-3.867,29.631-2.25,41.629,8.736c5.814,5.324,9.368,12.57,10.962,20.242
			c3.547,17.073-0.641,32.763-9.129,47.776c-8.372,14.807-20.359,25.683-35.382,32.843c-13.946,6.648-28.923,8.646-43.609,2.312
			c-8.89-3.834-15.604-10.58-18.395-20.329C313.537,200.726,312.459,201.202,312.124,190.869z"/>
		<path fill-rule="evenodd" clip-rule="evenodd" fill="#331111" d="M325.548,280.892c-0.211-0.278-0.374-0.61-0.508-0.969
			c-0.468-1.255-0.504-2.895-0.38-4.229c1.012-10.914-0.561-21.562-3.47-31.991c-4.196-15.049-12.101-27.633-24.431-37.66
			c-8.818-7.17-18.646-11.905-29.493-13.894c-21.863-4.009-42.078,1.293-60.742,12.974c-3.246,2.031-6.24,2.933-10.391,2.506
			c-6.127-0.631-13.17-1.147-18.508,1.234c-10.369,4.627-20.695,10.24-29.438,17.398c-10.875,8.902-18.505,20.747-23.534,34.242
			c-3.643,9.778-6.07,19.578-6.266,31.521c0.098,1.037,0.301,3.562,0.576,6.079c0.303,2.762,0.396,5.583,1.055,8.261
			c5.041,20.512,19.055,36.749,41.701,38.771c4.99,0.445,7.519,2.219,10.91,6.205c10.406,12.23,23.41,21.542,39.959,23.446
			c7.195,0.826,11.52,4.228,15.344,9.773c6.537,9.481,16.244,14.486,27.22,16.265c20.321,3.293,37.692-4.652,52.328-17.549
			c13.323-11.738,22.579-26.755,27.011-44.368c1.265-5.029,2.179-9.997,2.648-14.894
			C338.597,308.821,335.741,294.325,325.548,280.892z"/>
	</g>
</g>
<g id="PQStudio_x5F_test" display="none">
	<path display="inline" fill-rule="evenodd" clip-rule="evenodd" fill="#700F11" d="M410.669,345.146
		c5.265-6.157,8.104-12.673,8.104-19.419c0-37.866-89.044-68.563-198.886-68.563S21,287.86,21,325.727
		c0,29.578,62.021,53.491,108.603,72.071l8.636,8.636c0,0,87.905,56.28,182.138,56.28c94.233,0,170.624-28.475,170.624-63.6
		C491,376.35,458.905,356.382,410.669,345.146z"/>
	<path display="inline" fill-rule="evenodd" clip-rule="evenodd" fill="#68B2E2" d="M396.258,345.398
		c5.03-5.882,7.742-12.106,7.742-18.551c0-36.175-85.065-65.5-190-65.5c-104.934,0-190,29.325-190,65.5
		c0,28.256,59.25,51.101,103.75,68.851l8.25,8.25c0,0,83.978,53.766,174,53.766s163-27.202,163-60.758
		C473,375.208,442.339,356.133,396.258,345.398z"/>
	<path display="inline" fill-rule="evenodd" clip-rule="evenodd" fill="#F16428" d="M26.664,341.26
		C39.039,361.454,50.137,368.792,58,376.198c14.605,13.757,39.25,27.938,55.5,37c26,14.5,52.069,24.758,93.5,34.5
		s90.723,14.095,137.495,8.016s55.458-13.453,60.981-22.984s4.445-23.579-20.477-33.268s-44-5.264-65,4.736
		s-57.478,15.704-95.5,11.5c-21.364-2.362-43.18-6.079-66-13c-17.793-5.396-36.858-9.689-58-18.75
		c-13.505-5.787-30.327-13.313-40-19.25C35.076,349.094,26.664,341.26,26.664,341.26z"/>
	<g id="Brush" display="inline">
		<path fill-rule="evenodd" clip-rule="evenodd" fill="#A03D22" d="M334.495,446.714c5.622-5.652,8.53-12.288,10.993-19.142
			c5.721-15.913,5.886-32.285,4.417-48.912c-1.263-14.302,0.136-28.364,6.991-41.371c4.415-8.378,10.956-14.544,19.625-18.479
			c3.554-1.612,7.065-0.855,10.557-0.201c10.319,1.934,19.56,6.264,28.021,12.499c2.925,2.155,3.437,5.177,4.163,8.119
			c3.027,12.264,4.741,24.699,3.273,37.345c-2.269,19.554-11.254,35.371-27.06,47.157c-17.665,13.174-37.985,19.568-59.465,22.892
			C335.672,446.675,335.323,446.666,334.495,446.714z"/>
		<path fill-rule="evenodd" clip-rule="evenodd" fill="#C65739" d="M407.979,327.708c0,0,15.391,35.596,6.521,60.49
			c-15.5,43.5-57,50-57,50s40.042-5.638,50.479-49c9.153-38.027-6.629-64.63-6.629-64.63L407.979,327.708z"/>
		<path fill-rule="evenodd" clip-rule="evenodd" fill="#3E1B11" d="M485.87,50.706c-1.095,9.973-1.812,20.006-3.364,29.906
			c-2.851,18.179-5.944,36.328-9.394,54.402c-4.226,22.13-8.701,44.219-13.483,66.236c-3.621,16.666-7.659,33.253-11.947,49.763
			c-3.582,13.798-7.853,27.416-11.709,41.145c-3.232,11.506-8.992,21.647-16.184,31.084c-1.995,2.617-3.698,5.457-5.507,8.152
			c-4.086-2.261-7.738-4.839-11.783-6.393c-6.166-2.37-12.566-4.174-18.95-5.913c-2.062-0.562-3.077-1.059-2.857-3.422
			c0.882-9.454,0.609-19.144,2.639-28.333c2.603-11.79,6.49-23.379,10.744-34.71c9.526-25.376,19.295-50.674,29.588-75.746
			c8.283-20.177,17.267-40.075,26.336-59.916c7.796-17.053,16.062-33.896,24.319-50.734c2.401-4.898,5.444-9.485,8.285-14.162
			c0.635-1.045,1.651-1.858,2.493-2.779C485.354,49.759,485.611,50.233,485.87,50.706z"/>
		<path fill="#5B2515" d="M419.254,272.698c12.746-34.25,30.829-100.75,32.246-105s17.836-62.334,15.5-70
			s-33.055,60.003-41.338,80.18c-10.293,25.072-20.062,50.37-29.588,75.746c-4.254,11.331-8.142,22.92-10.744,34.71
			c-2.029,9.189-1.792,21.031-2.674,30.485c0,0,0.61,0.195,2.673,0.757c6.384,1.739,11.174,3.304,11.174,3.304
			S406.508,306.948,419.254,272.698z"/>
	</g>
	<g id="Paw_4_" display="inline">
		<path fill-rule="evenodd" clip-rule="evenodd" fill="#13244B" d="M248.994,279.447c0.429-10.008-1.276-19.816-5.038-29.018
			c-10.561-25.83-29.323-37.873-54.498-39.018c-13.538-0.615-26.148,4.262-38.05,10.807c-3.012,1.656-6.689,2.229-10.135,2.941
			c-6.882,1.426-14.097,1.775-20.677,4.025c-26.151,8.943-45.965,40.408-45.074,66.697c0.486,4.254,0.439,8.652,1.553,12.734
			c4.538,16.646,13.841,29.006,32.015,31.664c6.545,0.959,10.922,3.936,15.113,8.711c8.551,9.744,19.38,15.691,32.405,17.396
			c3.655,0.479,6.86,1.883,9.062,5.215c11.514,17.432,33.861,20.662,52.02,11.959c18.003-8.631,30.108-22.652,37.025-40.906
			c6.499-17.146,7.302-34.605-2.499-51.098C249.893,287.648,248.804,283.914,248.994,279.447z"/>
		<path fill-rule="evenodd" clip-rule="evenodd" fill="#13244B" d="M128.167,215.936c18.808-17.318,26.611-48.427,15.611-73.354
			c-10.885-24.668-35.396-31.246-55.269-15.018c-15.605,12.742-21.039,30.307-22.701,49.029c0.782,11.351,2.724,21.745,8.262,31.321
			C86.011,228.557,110.623,232.09,128.167,215.936z"/>
		<path fill-rule="evenodd" clip-rule="evenodd" fill="#13244B" d="M212.675,198.789c25.894-13.299,40.54-50.069,30.152-77.243
			c-5.312-13.896-16.427-24.096-31.598-23.705c-6.729,0.268-13.181,2.18-18.717,5.355c-25.018,14.342-37.622,47.453-28.434,74.82
			C171.153,199.09,191.308,209.764,212.675,198.789z"/>
		<path fill-rule="evenodd" clip-rule="evenodd" fill="#13244B" d="M283.34,245.58c11.897-3.02,21.923-9.236,30.225-18.08
			c12.658-13.486,20.249-29.002,18.588-48.167c-1.554-17.93-15.066-30.338-33.532-30.352c-9.12,0.439-15.9,2.312-22.729,5.887
			c-20.1,10.521-32.491,27.152-36.29,49.821C235.146,231.273,256.022,252.512,283.34,245.58z"/>
		<path fill-rule="evenodd" clip-rule="evenodd" fill="#13244B" d="M305.021,338.908c17.324-1.713,32.005-9.926,43.582-23.236
			c8.609-9.9,14.8-21.229,15.246-34.334c0.022-0.654,0.03-1.299,0.025-1.938c-0.189-20.217-13.751-33.051-34.638-34
			c-14.13-0.641-26.704,4.885-37.667,13.375c-14.979,11.6-25.07,26.27-25.638,40.014
			C265.689,330.949,287.864,340.605,305.021,338.908z"/>
	</g>
</g>
</svg>
